<svg width="360" height="469" viewBox="0 0 360 469" fill="none" xmlns="http://www.w3.org/2000/svg">
<path opacity="0.05" d="M195.81 424.569C191.09 420.383 186.118 416.161 181.399 411.507C177.616 415.007 174.085 418.29 170.338 421.538C123.61 461.881 75.4407 478.696 46.9066 462.35C19.2733 446.725 10.5906 400.573 21.6511 342.477C22.8401 336.198 24.2451 329.883 25.9024 323.604C20.9306 322.125 16.2109 320.79 11.4913 319.202C-47.3061 299.103 -86 266.446 -86 233.79C-86 201.133 -49.9001 171.76 6.51945 152.166C12.8243 150.073 19.4895 147.981 26.3708 146.104C24.7856 140.042 23.5606 134.196 22.3717 128.567C10.5546 69.6047 18.8049 22.5143 46.6905 6.6731C75.7289 -10.1063 123.862 7.82781 172.247 50.0468C175.058 52.6088 177.904 55.4234 180.966 58.202C185.434 54.0161 189.685 49.7942 194.188 46.0775C239.944 6.60093 285.483 -9.88975 313.368 5.98749C342.407 22.2977 350.909 72.6719 337.939 134.954C337.219 138.923 336.354 142.676 335.345 146.645C341.254 148.269 347.127 150.146 352.567 152.022C410.175 171.616 447.464 202.144 446.996 234.331C446.996 267.204 407.113 299.644 345.938 319.671C342.623 320.609 339.345 321.764 336.03 322.702C337.435 327.357 338.372 332.012 339.344 336.703C351.63 397.109 342.155 446.545 313.621 462.855C306.127 467.041 297.516 469.17 288.761 468.989C262.605 468.953 229.388 453.004 195.882 424.569H195.81ZM242.069 338.976C228.523 358.498 213.607 377.19 197.467 394.944C201.934 399.346 206.438 403.351 210.905 407.068C249.851 440.194 285.735 452.535 302.488 442.972C307.604 438.895 311.783 433.879 314.81 428.286C317.8 422.693 319.565 416.558 319.962 410.316C323.384 387.186 322.411 363.658 317.115 340.817C316.395 336.631 315.53 332.409 314.305 328.007C290.527 333.167 266.388 336.811 242.069 338.94V338.976ZM44.2766 346.446C34.6212 396.135 41.6826 433.193 58.4716 442.756C64.4162 445.065 70.8652 446.112 77.3141 445.859C83.7631 445.607 90.068 444.055 95.7964 441.276C118.062 432.616 138.309 420.095 155.531 404.434C159.061 401.619 162.376 398.372 165.907 395.124C149.406 377.371 134.094 358.679 120.115 339.157C95.9045 337.28 71.8379 333.852 48.1316 328.909C46.6544 335.007 45.4655 340.817 44.3126 346.446H44.2766ZM181.651 379.103C192.027 367.664 202.403 355.07 212.815 341.105C202.439 341.575 191.558 341.791 180.714 341.791C169.87 341.791 159.71 341.575 149.55 341.105C160.178 354.854 170.806 367.664 181.651 379.103ZM132.076 151.517C123.105 164.327 114.387 177.823 106.1 192.112C97.85 206.113 90.3202 220.33 83.4389 234.511C90.5363 248.512 98.0662 262.73 106.353 277.2C114.603 291.2 123.358 304.985 132.329 318.011C147.893 318.949 164.213 319.491 180.714 319.491C197.215 319.491 213.751 319.022 229.568 317.867C238.07 305.057 246.789 291.273 255.075 277.055C263.362 262.838 271.108 248.368 277.989 234.403C271.144 220.655 263.362 206.438 255.075 192.184C246.825 177.931 238.07 164.399 229.352 151.589C213.571 150.434 197.251 149.713 180.714 149.713C164.177 149.713 147.893 150.398 132.076 151.553V151.517ZM54.1843 307.511C70.3968 310.939 86.7895 313.501 103.29 315.233C97.6338 306.392 91.9774 297.515 86.5372 288.169C81.3492 279.076 76.1612 269.983 71.4416 260.889C64.5963 276.73 58.9399 292.391 54.2203 307.511H54.1843ZM274.855 287.917C269.415 297.227 263.974 306.103 258.57 314.728C275.323 312.779 291.968 310 308.361 306.32C303.245 290.587 297.228 275.107 290.419 259.915C285.447 269.225 280.259 278.571 274.819 287.881L274.855 287.917ZM13.8331 173.637C-34.3001 190.416 -63.3385 214.881 -63.3385 234.042C-62.4378 240.213 -60.2041 246.131 -56.7814 251.507C-53.3948 256.884 -48.8553 261.575 -43.5232 265.292C-25.113 279.617 -3.96465 290.695 18.8049 297.948C23.0562 299.428 27.5237 300.51 32.0271 301.918C39.2687 278.968 48.0235 256.487 58.2194 234.511C47.9875 212.933 39.3408 190.741 32.2433 168.116C25.8664 169.703 19.7417 171.544 13.8331 173.637ZM303.461 234.042C313.945 255.729 322.916 277.993 330.302 300.727C333.364 299.789 336.462 298.85 339.272 297.912C391.909 280.664 424.55 254.322 424.73 233.79C424.73 214.665 394.539 189.947 345.181 173.168C340.209 171.544 334.805 169.92 329.401 168.26C322.267 190.669 313.585 212.644 303.461 234.042ZM274.675 180.421C280.115 189.73 285.303 198.86 290.022 207.953C296.579 193.086 302.236 177.895 307.028 162.487C290.995 158.878 274.783 156.063 258.39 154.079C264.046 162.703 269.487 171.327 274.675 180.421ZM54.4365 162.27C59.1561 177.209 64.8125 192.365 71.4416 207.953C76.1612 198.86 81.3492 189.767 86.5372 180.673C91.7253 171.58 97.1655 162.739 102.822 154.079C85.8167 156.136 69.7843 158.914 54.4365 162.234V162.27ZM209.032 63.1455C205.033 66.6458 200.998 70.3625 196.999 74.1153C213.391 91.6524 228.451 110.2 242.069 129.65C266.1 131.815 289.914 135.531 313.368 140.836C314.305 137.336 314.954 133.835 315.746 130.335C326.807 76.7134 319.998 35.6491 302.056 25.401C298.129 23.3442 293.661 22.3338 289.122 22.4782C269.847 22.406 240.232 36.2986 209.032 63.0734V63.1455ZM57.9672 26.0145C41.2142 35.5769 34.5851 73.8266 44.5288 124.201C45.7177 129.577 46.9066 134.918 48.3117 140.511C71.8019 135.387 95.5802 131.742 119.611 129.541C133.301 110.056 148.433 91.5081 164.934 74.007C162.34 71.445 159.494 69.0995 156.9 66.754C124.042 37.9946 92.4818 22.839 71.8379 22.839C66.9742 22.6947 62.1824 23.7772 58.0032 26.0145H57.9672ZM212.346 127.665C202.619 114.638 192.099 102.081 180.894 90.1368C170.266 101.54 159.638 114.169 149.298 127.665C159.674 127.196 170.05 126.979 180.678 126.979C191.306 126.979 201.934 127.16 212.346 127.665ZM133.518 234.944C133.301 228.954 134.346 222.964 136.616 217.371C138.886 211.742 142.344 206.618 146.776 202.252C151.207 197.886 156.539 194.349 162.412 191.896C168.32 189.442 174.697 188.071 181.146 187.854C194.224 188.251 206.582 193.447 215.517 202.288C224.452 211.129 229.243 222.856 228.847 234.981C229.279 247.069 224.488 258.832 215.553 267.709C206.618 276.55 194.26 281.746 181.182 282.143C174.697 281.963 168.32 280.592 162.412 278.102C156.503 275.612 151.171 272.112 146.776 267.709C142.344 263.343 138.886 258.183 136.616 252.554C134.346 246.925 133.301 240.971 133.518 234.944Z" fill="url(#paint0_linear_38_1506)"/>
<defs>
<linearGradient id="paint0_linear_38_1506" x1="180.5" y1="0" x2="180.5" y2="469" gradientUnits="userSpaceOnUse">
<stop stop-color="#81D8F7"/>
<stop offset="1" stop-color="#81D8F7" stop-opacity="0"/>
</linearGradient>
</defs>
</svg>
